# xmcd
#
# Track frame offsets:
#	150
#	15296
#	26727
#	38124
#	47670
#	62291
#	74257
#	93681
#	109657
#	123770
#	139411
#	148867
#	158525
#	170175
#
# Disc length: 2484 seconds
#
# Revision: 1
# Processed by: cddbd v1.5.2PL0 Copyright (c) Steve Scherf et al.
# Submitted via: audiograbber 1.83.01
#
DISCID=bc09b20e
DTITLE=Verschiedene - Country Hits
DYEAR=1900
DGENRE=Country
TTITLE0=Blanket On The Ground
TTITLE1=Oh Lonesome Me
TTITLE2=Bonanza
TTITLE3=Kiss An Angel Good Morning
TTITLE4=I Did What I Did For Maria
TTITLE5=Jackson
TTITLE6=Delta Dawn
TTITLE7=Crossfire
TTITLE8=Bonnie And Clyde
TTITLE9=It's A Heartache
TTITLE10=Billy Bayou
TTITLE11=Jacky's Boots
TTITLE12=The Happiest Girl In The U.S.A.
TTITLE13=Memory Train
EXTD=
EXTT0=
EXTT1=
EXTT2=
EXTT3=
EXTT4=
EXTT5=
EXTT6=
EXTT7=
EXTT8=
EXTT9=
EXTT10=
EXTT11=
EXTT12=
EXTT13=
PLAYORDER=
